<svg width="76" height="73" fill="none" xmlns="http://www.w3.org/2000/svg"><path d="M30.15 65.5h16V41.7h-16v23.8zm2.9-20.9h10.1v18h-10.1v-18z" fill="#83B3D3"/><path d="M73.25 39.8l2.1-2.1-9.9-9.9V.5h-13.9v13.6L37.95.5.65 37.7l2.1 2.1 7.8-7.8v37.6h-4v2.9h63.9v-2.9h-5.1V32l7.9 7.8zm-10.8 29.8h-49V29l24.5-24.4L62.45 29v40.6zm0-44.7l-7.9-7.9V3.4h7.9v21.5z" fill="#83B3D3"/><path d="M30.35 27.6c0 4.3 3.5 7.7 7.7 7.7 4.3 0 7.8-3.5 7.8-7.7 0-4.3-3.5-7.7-7.8-7.7a7.7 7.7 0 00-7.7 7.7zm7.8-5a5 5 0 015 4.9c0 2.7-2.2 4.9-5 4.9a5 5 0 01-5-4.9c0-2.7 2.2-4.9 5-4.9zM20.55 41.7h-3v3.9h3v-3.9zM26.45 41.7h-3v3.9h3v-3.9zM20.55 47.7h-3v3.9h3v-3.9zM26.45 47.7h-3v3.9h3v-3.9zM52.45 41.7h-3v3.9h3v-3.9zM58.35 41.7h-3v3.9h3v-3.9zM52.45 47.7h-3v3.9h3v-3.9zM58.35 47.7h-3v3.9h3v-3.9z" fill="#83B3D3"/></svg>