<svg width="19" height="19" fill="none" xmlns="http://www.w3.org/2000/svg"><path d="M14.05 13.04l-.27.35.32.31 3.36 3.36-.72.77-3.34-3.33-.32-.32-.34.28a7.42 7.42 0 01-4.61 1.59 7.53 7.53 0 01-7.52-7.5C.6 4.42 4 .95 8.13.95a7.53 7.53 0 017.52 7.5c0 1.78-.65 3.37-1.6 4.6zM1.61 8.55a6.53 6.53 0 0013.04 0 6.53 6.53 0 00-13.04 0z" fill="#000"/><path d="M14.05 13.04l-.27.35.32.31 3.36 3.36-.72.77-3.34-3.33-.32-.32-.34.28a7.42 7.42 0 01-4.61 1.59 7.53 7.53 0 01-7.52-7.5C.6 4.42 4 .95 8.13.95a7.53 7.53 0 017.52 7.5c0 1.78-.65 3.37-1.6 4.6zM1.61 8.55a6.53 6.53 0 0013.04 0 6.53 6.53 0 00-13.04 0z" stroke="#000"/><path d="M14.05 13.04l-.27.35.32.31 3.36 3.36-.72.77-3.34-3.33-.32-.32-.34.28a7.42 7.42 0 01-4.61 1.59 7.53 7.53 0 01-7.52-7.5C.6 4.42 4 .95 8.13.95a7.53 7.53 0 017.52 7.5c0 1.78-.65 3.37-1.6 4.6zM1.61 8.55a6.53 6.53 0 0013.04 0 6.53 6.53 0 00-13.04 0z" stroke="#000" stroke-opacity=".2"/></svg>