<svg width="19" height="19" viewBox="0 0 19 19" fill="none" xmlns="http://www.w3.org/2000/svg">
<path d="M14.0521 13.0446L13.7832 13.3931L14.095 13.704L17.4624 17.062L16.7422 17.8315L13.3971 14.4959L13.0839 14.1836L12.7357 14.4564C11.4185 15.4884 9.82193 16.05 8.13013 16.05C3.99244 16.05 0.607422 12.6725 0.607422 8.54995C0.607422 4.41935 4.00048 0.949951 8.13013 0.949951C12.2678 0.949951 15.6528 4.32743 15.6528 8.44995C15.6528 10.225 14.9968 11.8199 14.0521 13.0446ZM1.6131 8.54995C1.6131 12.1274 4.54596 15.05 8.13013 15.05C11.7143 15.05 14.6472 12.1274 14.6472 8.54995C14.6472 4.97247 11.7143 2.04995 8.13013 2.04995C4.54596 2.04995 1.6131 4.97247 1.6131 8.54995Z" fill="black"/>
<path d="M14.0521 13.0446L13.7832 13.3931L14.095 13.704L17.4624 17.062L16.7422 17.8315L13.3971 14.4959L13.0839 14.1836L12.7357 14.4564C11.4185 15.4884 9.82193 16.05 8.13013 16.05C3.99244 16.05 0.607422 12.6725 0.607422 8.54995C0.607422 4.41935 4.00048 0.949951 8.13013 0.949951C12.2678 0.949951 15.6528 4.32743 15.6528 8.44995C15.6528 10.225 14.9968 11.8199 14.0521 13.0446ZM1.6131 8.54995C1.6131 12.1274 4.54596 15.05 8.13013 15.05C11.7143 15.05 14.6472 12.1274 14.6472 8.54995C14.6472 4.97247 11.7143 2.04995 8.13013 2.04995C4.54596 2.04995 1.6131 4.97247 1.6131 8.54995Z" stroke="black"/>
<path d="M14.0521 13.0446L13.7832 13.3931L14.095 13.704L17.4624 17.062L16.7422 17.8315L13.3971 14.4959L13.0839 14.1836L12.7357 14.4564C11.4185 15.4884 9.82193 16.05 8.13013 16.05C3.99244 16.05 0.607422 12.6725 0.607422 8.54995C0.607422 4.41935 4.00048 0.949951 8.13013 0.949951C12.2678 0.949951 15.6528 4.32743 15.6528 8.44995C15.6528 10.225 14.9968 11.8199 14.0521 13.0446ZM1.6131 8.54995C1.6131 12.1274 4.54596 15.05 8.13013 15.05C11.7143 15.05 14.6472 12.1274 14.6472 8.54995C14.6472 4.97247 11.7143 2.04995 8.13013 2.04995C4.54596 2.04995 1.6131 4.97247 1.6131 8.54995Z" stroke="black" stroke-opacity="0.2"/>
</svg>
